# xmcd
#
# Track frame offsets: 
#        150
#        11713
#        26110
#        40151
#        54820
#        67646
#        82707
#        100329
#        111547
#        124302
#        134265
#        149836
#        168701
#        183029
#        194320
#        207700
#        217729
#        229393
#        244775
#        259507
#        275647
#        295236
#        310039
#
# Disc length: 4303 seconds
#
# Revision: 0
# Processed by: cddbd v1.5.2PL0 Copyright (c) Steve Scherf et al.
# Submitted via: ExactAudioCopy v0.99pb4
#
DISCID=5410cd17
DTITLE=Replacements - Mr. Liquor
DYEAR=1989
DGENRE=Ambient
TTITLE0=Color Me Impressed
TTITLE1=Talent Show
TTITLE2=I Don't Know
TTITLE3=Back to Back
TTITLE4=Favorite Thing
TTITLE5=Achin' to Be
TTITLE6=The Ledge
TTITLE7=Anywhere's Better Than Here
TTITLE8=Cruella De Ville
TTITLE9=Waitress in the Sky
TTITLE10=Asking Me Lies
TTITLE11=Within Your Reach
TTITLE12=I Will Dare
TTITLE13=Another Girl, Another Planet
TTITLE14=Can't Hardly Wait
TTITLE15=Lovelines
TTITLE16=Black Diamond
TTITLE17=Unsatisfied
TTITLE18=Darlin' One
TTITLE19=Bastards of Young
TTITLE20=Here Comes a Regular
TTITLE21=Valentine
TTITLE22=Nevermind
EXTD=
EXTT0=
EXTT1=
EXTT2=
EXTT3=
EXTT4=
EXTT5=
EXTT6=
EXTT7=
EXTT8=
EXTT9=
EXTT10=
EXTT11=
EXTT12=
EXTT13=
EXTT14=
EXTT15=
EXTT16=
EXTT17=
EXTT18=
EXTT19=
EXTT20=
EXTT21=
EXTT22=
PLAYORDER=
